#!OML:ASF I:\Actors\actors\Patient Classification 1\Patient 1\Session 1\Subject1.ASF
:FULLY-SPECIFIED
:DEGREES
202
root 0.325792 17.4453 9.36671 9.07732 -0.897292 -9.86981
lowerback -0.669476 -0.369482 5.77706
upperback -7.70256 -0.0447804 3.90502
thorax -7.72311 -0.253863 0.885773
lowerneck -13.9083 -3.0304 -0.970252
upperneck 31.9136 -4.38931 0.401836
head 13.0059 -2.02324 -0.34246
rclavicle 1.49585e-014 -4.53229e-014
rhumerus -42.0225 10.0428 -86.5153
rradius 100.218
rwrist -23.4004
rhand 13.5986 -57.5174
rfingers 7.12502
rthumb 38.5309 -83.1702
lclavicle 1.49585e-014 -4.53229e-014
lhumerus -30.5788 -19.7224 96.6099
lradius 96.1131
lwrist -12.1213
lhand -21.994 -19.496
lfingers 7.12502
lthumb 4.41455 10.438
rfemur -8.26156 16.8097 27.5667
rtibia 11.8057
rfoot -14.8225 -19.7823
rtoes -0.830759
lfemur 6.38711 -44.9614 -10.9139
ltibia -4.35158
lfoot -27.0195 53.2566
ltoes 12.6026
203
root 0.318673 17.4432 9.37579 8.84746 -0.089963 -9.93035
lowerback -0.595839 -0.567601 5.74653
upperback -7.66375 -0.301465 3.98244
thorax -7.73049 -0.374629 1.00025
lowerneck -13.8173 -2.97085 -0.993832
upperneck 31.6906 -4.2703 0.357371
head 12.891 -1.98109 -0.332862
rclavicle -6.26172e-015 -1.44119e-014
rhumerus -42.7782 9.91988 -86.4829
rradius 101.033
rwrist -26.1393
rhand 12.8188 -57.514
rfingers 7.12502
rthumb 37.7947 -83.3687
lclavicle -6.26172e-015 -1.44119e-014
lhumerus -30.7079 -19.7999 96.8017
lradius 96.2416
lwrist -12.2921
lhand -21.9263 -19.5635
lfingers 7.12502
lthumb 4.47992 10.3691
rfemur -7.89721 16.5663 27.7956
rtibia 11.6888
rfoot -15.0403 -20.2882
rtoes -0.158455
lfemur 6.32871 -45.131 -10.7025
ltibia -4.34997
lfoot -26.0357 52.9058
ltoes 11.6556
204
root 0.314827 17.4406 9.38335 8.63291 0.628983 -10.0516
lowerback -0.494443 -0.726132 5.88865
upperback -7.62241 -0.498523 4.02181
thorax -7.7533 -0.478977 0.976305
lowerneck -13.762 -2.91128 -1.02867
upperneck 31.499 -4.16592 0.362983
head 12.7994 -1.93929 -0.305521
rclavicle 1.77291e-014 -3.4191e-014
rhumerus -43.2458 9.81588 -86.5795
rradius 102.082
rwrist -28.3185
rhand 11.8708 -57.7079
rfingers 7.12502
rthumb 36.8985 -83.7985
lclavicle 1.77291e-014 -3.4191e-014
lhumerus -30.8691 -19.9268 96.9265
lradius 96.3594
lwrist -12.3912
lhand -21.7829 -19.5265
lfingers 7.12502
lthumb 4.61844 10.4032
rfemur -7.59468 16.3086 28.0612
rtibia 11.6203
rfoot -15.2244 -20.6902
rtoes 0.177193
lfemur 6.30578 -45.335 -10.4555
ltibia -4.38888
lfoot -25.1271 52.6748
ltoes 10.745
205
root 0.309493 17.4379 9.3891 8.50487 0.895797 -10.1495
lowerback -0.48767 -0.726583 5.92442
upperback -7.53949 -0.499764 4.05467
thorax -7.66735 -0.477984 0.988538
lowerneck -13.7465 -2.83003 -0.985597
upperneck 31.335 -4.0293 0.299402
head 12.7238 -1.88221 -0.314507
rclavicle 1.77167e-014 -3.76697e-014
rhumerus -43.5335 10.3938 -87.2099
rradius 103.341
rwrist -26.9065
rhand 9.19524 -57.241
rfingers 7.12502
rthumb 34.3627 -83.9435
lclavicle 1.77167e-014 -3.76697e-014
lhumerus -30.9372 -20.0901 97.0066
lradius 96.4615
lwrist -12.3286
lhand -21.4035 -19.3335
lfingers 7.12502
lthumb 4.98477 10.5878
rfemur -7.4981 16.1597 28.239
rtibia 11.7556
rfoot -15.4112 -20.7552
rtoes 0.400402
lfemur 6.46412 -45.5023 -10.4095
ltibia -4.46245
lfoot -24.7475 52.7046
ltoes 10.2338
206
root 0.307368 17.4377 9.3938 8.32524 1.11386 -10.0568
lowerback -0.422413 -0.737858 5.81812
upperback -7.43588 -0.51937 4.05218
thorax -7.5901 -0.478262 1.0437
lowerneck -13.6829 -2.70148 -0.840815
upperneck 31.1528 -3.80742 0.0986287
head 12.6244 -1.79376 -0.379781
rclavicle -4.31984e-014 8.67695e-014
rhumerus -43.5595 11.2076 -87.9531
rradius 104.76
rwrist -24.3302
rhand 5.93537 -56.4748
rfingers 7.12502
rthumb 31.2617 -83.826
lclavicle -4.31984e-014 8.67695e-014
lhumerus -30.9299 -20.1727 97.0851
lradius 96.4849
lwrist -12.4028
lhand -21.0649 -19.2141
lfingers 7.12502
lthumb 5.31166 10.6994
rfemur -7.35418 15.989 28.2
rtibia 11.8935
rfoot -15.583 -20.8141
rtoes 0.910825
lfemur 6.63477 -45.5017 -10.6204
ltibia -4.45933
lfoot -24.1227 52.5918
ltoes 9.54998
207
root 0.3086 17.4416 9.39875 8.06668 1.39619 -9.87009
lowerback -0.16259 -0.788904 5.78946
upperback -7.38653 -0.573883 3.95796
thorax -7.68912 -0.507527 0.967584
lowerneck -13.5831 -2.5623 -0.627546
upperneck 31.0176 -3.58162 -0.133401
head 12.5357 -1.69953 -0.468159
rclavicle -9.38015e-015 -2.23633e-014
rhumerus -43.3746 12.1146 -88.9692
rradius 106.239
rwrist -20.8916
rhand 5.50877 -57.292
rfingers 7.12502
rthumb 30.8551 -84.721
lclavicle -9.38015e-015 -2.23633e-014
lhumerus -31.0934 -20.2511 97.1187
lradius 96.4746
lwrist -12.9396
lhand -21.2269 -19.1959
lfingers 7.12502
lthumb 5.15531 10.7214
rfemur -7.0613 15.8059 28.0791
rtibia 11.9078
rfoot -15.6527 -20.9967
rtoes 1.05232
lfemur 6.80912 -45.3761 -10.9411
ltibia -4.40216
lfoot -23.5134 52.2502
ltoes 9.08064
208
root 0.308271 17.4393 9.39753 8.15693 1.09523 -9.81612
lowerback -0.180154 -0.608456 5.83996
upperback -7.39403 -0.3365 3.86359
thorax -7.68146 -0.397183 0.824049
lowerneck -13.5541 -2.45149 -0.452111
upperneck 30.9412 -3.4104 -0.296472
head 12.49 -1.62391 -0.533757
rclavicle 1.31446e-014 -3.94588e-014
rhumerus -42.7918 13.1912 -90.1424
rradius 107.667
rwrist -17.5635
rhand 8.52991 -60.7274
rfingers 7.12502
rthumb 33.7307 -87.5706
lclavicle 1.31446e-014 -3.94588e-014
lhumerus -31.2399 -20.4175 97.0754
lradius 96.4854
lwrist -13.5113
lhand -21.3016 -19.0273
lfingers 7.12502
lthumb 5.08314 10.8918
rfemur -7.34649 15.8318 27.9594
rtibia 12.2112
rfoot -15.6035 -20.7867
rtoes 0.547332
lfemur 6.76536 -45.171 -10.9869
ltibia -4.36885
lfoot -23.9474 52.2266
ltoes 9.60513
209
root 0.307687 17.4376 9.39841 8.25876 0.633595 -9.77429
lowerback -0.347763 -0.368383 5.83729
upperback -7.32413 -0.0386191 3.79313
thorax -7.49763 -0.248849 0.727261
lowerneck -13.5963 -2.34774 -0.319822
upperneck 30.9192 -3.25409 -0.411198
head 12.4844 -1.55271 -0.577616
rclavicle 2.43511e-014 -5.30755e-014
rhumerus -41.8698 14.5964 -91.4235
rradius 109.078
rwrist -15.3807
rhand 8.63298 -59.6827
rfingers 7.12502
rthumb 33.8286 -86.5044
lclavicle 2.43511e-014 -5.30755e-014
lhumerus -31.1878 -20.5755 97.0058
lradius 96.4551
lwrist -13.8735
lhand -21.077 -19.0298
lfingers 7.12502
lthumb 5.29999 10.8839
rfemur -7.59886 15.9793 27.8604
rtibia 12.4827
rfoot -15.5624 -20.5125
rtoes 0.302707
lfemur 6.79612 -44.8387 -11.0728
ltibia -4.35856
lfoot -24.4545 52.2116
ltoes 10.0668
210
root 0.316677 17.4314 9.39887 8.53346 0.437056 -9.68931
lowerback -0.656278 -0.198317 6.01978
upperback -7.34813 0.161721 3.65848
thorax -7.33878 -0.163859 0.469541
lowerneck -13.6357 -2.23192 -0.176077
upperneck 30.9876 -3.10517 -0.464257
head 12.5168 -1.4748 -0.602197
rclavicle -2.50779e-014 6.49529e-014
rhumerus -40.8784 16.3021 -92.9333
rradius 110.478
rwrist -14.5029
rhand 6.40395 -58.5279
rfingers 7.12502
rthumb 31.7082 -85.7919
lclavicle -2.50779e-014 6.49529e-014
lhumerus -31.1377 -20.6787 96.9308
lradius 96.4287
lwrist -14.1682
lhand -20.7904 -19.2475
lfingers 7.12502
lthumb 5.57669 10.6592
rfemur -8.006 15.9635 27.6297
rtibia 12.6697
rfoot -15.6162 -20.2616
rtoes 0.355899
lfemur 6.27728 -44.3752 -10.8276
ltibia -4.24312
lfoot -24.5114 51.8913
ltoes 10.2836
211
root 0.326416 17.437 9.39615 8.47488 -0.17365 -9.64998
lowerback -0.469071 0.0917998 6.24474
upperback -7.31133 0.563504 3.49134
thorax -7.39164 0.0136646 0.14592
lowerneck -13.6343 -2.13901 -0.0829395
upperneck 31.0832 -3.00593 -0.425873
head 12.555 -1.41295 -0.59012
rclavicle 3.01687e-014 -3.84151e-014
rhumerus -39.8416 18.0573 -94.4647
rradius 111.718
rwrist -13.425
rhand 5.10923 -58.6328
rfingers 7.12502
rthumb 30.4742 -86.1331
lclavicle 3.01687e-014 -3.84151e-014
lhumerus -31.1608 -20.7734 96.8699
lradius 96.4653
lwrist -14.4554
lhand -20.5972 -19.536
lfingers 7.12502
lthumb 5.76325 10.3656
rfemur -8.06311 16.0852 27.5171
rtibia 12.8749
rfoot -15.583 -19.8005
rtoes 0.0909784
lfemur 6.65211 -44.1919 -11.2608
ltibia -4.21083
lfoot -25.1424 52.0906
ltoes 10.9977
212
root 0.321996 17.4506 9.41139 8.10711 -0.1692 -9.51479
lowerback -0.330973 0.166609 6.23634
upperback -7.17183 0.65914 3.34972
thorax -7.31336 0.0599375 -0.00651759
lowerneck -13.5553 -2.08579 -0.045245
upperneck 31.1108 -2.96599 -0.332559
head 12.551 -1.3776 -0.554103
rclavicle 9.01054e-015 -4.66771e-014
rhumerus -38.7407 19.7344 -95.7821
rradius 112.628
rwrist -11.1512
rhand 5.65211 -59.4279
rfingers 7.12502
rthumb 30.9918 -86.831
lclavicle 9.01054e-015 -4.66771e-014
lhumerus -31.219 -20.8576 96.88
lradius 96.5573
lwrist -14.6971
lhand -20.2964 -19.8177
lfingers 7.12502
lthumb 6.05365 10.0758
rfemur -7.3297 16.5018 27.5805
rtibia 12.4986
rfoot -15.5869 -20.2506
rtoes 0.303805
lfemur 7.17366 -43.8417 -11.7003
ltibia -4.24246
lfoot -24.4429 51.8137
ltoes 10.1693
213
root 0.329271 17.4523 9.41645 8.10933 -0.545788 -9.44044
lowerback -0.305379 0.427584 6.45722
upperback -7.19363 1.00989 3.16042
thorax -7.33119 0.211866 -0.348325
lowerneck -13.4176 -2.0766 -0.0432237
upperneck 31.1045 -2.98457 -0.223775
head 12.5215 -1.37092 -0.513289
rclavicle -3.1029e-015 1.99779e-014
rhumerus -37.4717 21.5614 -96.7074
rradius 113.066
rwrist -8.02261
rhand 4.96358 -58.6097
rfingers 7.12502
rthumb 30.3352 -86.1358
lclavicle -3.1029e-015 1.99779e-014
lhumerus -31.2969 -20.9914 96.968
lradius 96.6285
lwrist -15.0276
lhand -19.9361 -19.9986
lfingers 7.12502
lthumb 6.40149 9.88468
rfemur -7.28603 16.6972 27.4605
rtibia 12.449
rfoot -15.4823 -20.1107
rtoes -0.0534922
lfemur 7.26741 -43.4682 -11.9
ltibia -4.19176
lfoot -24.5481 51.7526
ltoes 10.2367
214
root 0.346045 17.4465 9.41003 8.4094 -1.23351 -9.47008
lowerback 0.0055932 0.852481 6.98011
upperback -7.56794 1.63938 2.89052
thorax -7.87446 0.458233 -0.959699
lowerneck -13.1839 -2.14379 -0.165059
upperneck 31.3118 -3.12327 0.0030672
head 12.5645 -1.41577 -0.424307
rclavicle -1.13059e-014 1.68967e-014
rhumerus -36.32 23.5088 -97.1714
rradius 113.156
rwrist -4.61606
rhand 5.64681 -58.2379
rfingers 7.12502
rthumb 30.9867 -85.6419
lclavicle -1.13059e-014 1.68967e-014
lhumerus -31.8009 -21.2083 97.2402
lradius 96.6957
lwrist -15.5315
lhand -19.6767 -20.1923
lfingers 7.12502
lthumb 6.65192 9.68326
rfemur -7.84722 16.7524 27.244
rtibia 12.7092
rfoot -15.302 -19.5131
rtoes -0.592213
lfemur 7.00508 -43.1426 -11.8413
ltibia -4.08003
lfoot -25.2427 51.9336
ltoes 10.9568
215
root 0.353732 17.4401 9.4067 8.80969 -1.96293 -9.59042
lowerback -0.619183 1.19093 7.0662
upperback -7.3853 2.02344 2.94843
thorax -7.2843 0.664834 -0.958373
lowerneck -13.408 -2.08744 -0.295901
upperneck 31.1555 -3.01784 0.0613237
head 12.5513 -1.37557 -0.365676
rclavicle 1.14891e-014 -9.24349e-015
rhumerus -34.2855 26.0909 -96.9328
rradius 113.103
rwrist -2.67436
rhand 7.06007 -58.191
rfingers 7.12502
rthumb 32.3329 -85.3296
lclavicle 1.14891e-014 -9.24349e-015
lhumerus -31.3122 -20.9746 97.2658
lradius 96.7933
lwrist -15.9014
lhand -19.0836 -20.3254
lfingers 7.12502
lthumb 7.22442 9.53125
rfemur -8.44592 17.0877 27.1607
rtibia 12.9231
rfoot -15.2162 -19.0597
rtoes -0.662301
lfemur 6.67813 -42.7651 -11.5549
ltibia -4.06821
lfoot -25.9404 52.1269
ltoes 11.607
